<svg width="614" height="682" viewBox="0 0 614 682" fill="none" xmlns="http://www.w3.org/2000/svg">
<g opacity="0.6">
<path d="M415.819 468.885C432.119 482.773 435.125 505.126 435.125 505.126C435.125 505.126 411.704 504.961 395.404 491.073C379.104 477.185 376.098 454.833 376.098 454.833C376.098 454.833 399.52 454.997 415.819 468.885Z" fill="white"/>
<path d="M380.403 346.252C389.36 365.346 410.656 374.729 410.656 374.729C410.656 374.729 417.429 353.153 408.472 334.058C399.514 314.964 378.218 305.581 378.218 305.581C378.218 305.581 371.445 327.157 380.403 346.252Z" fill="white"/>
<path d="M387.931 340.681C405.749 352.719 411.346 374.605 411.346 374.605C411.346 374.605 388.053 376.974 370.235 364.936C352.417 352.898 346.821 331.012 346.821 331.012C346.821 331.012 370.113 328.643 387.931 340.681Z" fill="#3F3D56"/>
<path d="M446.122 392.895C430.522 407.508 428.617 429.973 428.617 429.973C428.617 429.973 452.004 428.744 467.604 414.13C483.203 399.517 485.109 377.053 485.109 377.053C485.109 377.053 461.722 378.281 446.122 392.895Z" fill="#3F3D56"/>
<path d="M438.049 553.991C417.369 560.541 405.419 579.926 405.419 579.926C405.419 579.926 426.997 588.691 447.677 582.141C468.356 575.591 480.306 556.207 480.306 556.207C480.306 556.207 458.728 547.441 438.049 553.991Z" fill="#3F3D56"/>
<path d="M284.339 681.826L282.35 681.617C283.422 671.376 287.632 661.673 294.448 653.74C304.542 642.355 319.425 636.645 333.816 631.124C336.436 630.118 339.047 629.117 341.619 628.086C352.132 624.007 362.17 618.876 371.567 612.775C406.199 589.746 429.004 547.784 432.572 500.527C435.413 462.879 427.005 421.035 406.865 372.606L408.721 371.892C428.977 420.597 437.431 462.72 434.567 500.666C430.955 548.499 407.829 591.001 372.703 614.358C363.192 620.536 353.031 625.733 342.388 629.862C339.807 630.898 337.186 631.903 334.557 632.911C320.391 638.347 305.742 643.967 295.97 654.99C289.413 662.628 285.365 671.968 284.339 681.826Z" fill="#3F3D56"/>
<path d="M346.867 319.054C357.361 319.054 365.867 310.868 365.867 300.77C365.867 290.672 357.361 282.486 346.867 282.486C336.374 282.486 327.867 290.672 327.867 300.77C327.867 310.868 336.374 319.054 346.867 319.054Z" fill="#3F3D56"/>
<path d="M543.819 363.993C560.119 377.881 563.125 400.234 563.125 400.234C563.125 400.234 539.704 400.069 523.404 386.181C507.104 372.293 504.098 349.941 504.098 349.941C504.098 349.941 527.52 350.105 543.819 363.993Z" fill="white"/>
<path d="M508.403 241.36C517.36 260.455 538.656 269.837 538.656 269.837C538.656 269.837 545.429 248.261 536.472 229.167C527.514 210.072 506.218 200.689 506.218 200.689C506.218 200.689 499.445 222.265 508.403 241.36Z" fill="white"/>
<path d="M515.931 235.79C533.749 247.828 539.346 269.714 539.346 269.714C539.346 269.714 516.053 272.083 498.235 260.045C480.417 248.007 474.821 226.121 474.821 226.121C474.821 226.121 498.113 223.752 515.931 235.79Z" fill="#3F3D56"/>
<path d="M574.122 288.003C558.522 302.617 556.617 325.081 556.617 325.081C556.617 325.081 580.004 323.852 595.603 309.239C611.203 294.625 613.109 272.161 613.109 272.161C613.109 272.161 589.722 273.39 574.122 288.003Z" fill="#3F3D56"/>
<path d="M566.049 449.1C545.369 455.65 533.419 475.034 533.419 475.034C533.419 475.034 554.997 483.8 575.677 477.25C596.356 470.7 608.306 451.315 608.306 451.315C608.306 451.315 586.728 442.55 566.049 449.1Z" fill="#3F3D56"/>
<path d="M412.339 576.934L410.35 576.726C411.422 566.485 415.632 556.782 422.448 548.849C432.542 537.464 447.425 531.755 461.816 526.233C464.436 525.227 467.047 524.226 469.619 523.195C480.132 519.117 490.17 513.985 499.567 507.884C534.198 484.855 557.003 442.893 560.572 395.636C563.413 357.987 555.004 316.144 534.864 267.716L536.721 267.001C556.977 315.706 565.431 357.829 562.566 395.775C558.955 443.608 535.828 486.109 500.703 509.467C491.192 515.645 481.031 520.842 470.388 524.971C467.807 526.006 465.186 527.012 462.557 528.02C448.391 533.456 433.742 539.076 423.969 550.099C417.413 557.737 413.365 567.077 412.339 576.934Z" fill="#3F3D56"/>
<path d="M474.867 214.162C485.361 214.162 493.867 205.977 493.867 195.879C493.867 185.781 485.361 177.595 474.867 177.595C464.374 177.595 455.867 185.781 455.867 195.879C455.867 205.977 464.374 214.162 474.867 214.162Z" fill="#3F3D56"/>
<path d="M182.571 411.48C204.337 411.929 221.651 427.108 221.651 427.108C221.651 427.108 203.676 441.558 181.911 441.109C160.145 440.66 142.83 425.481 142.83 425.481C142.83 425.481 160.805 411.031 182.571 411.48Z" fill="white"/>
<path d="M73.1436 339.983C92.8081 348.973 115.357 342.876 115.357 342.876C115.357 342.876 106.023 322.204 86.3589 313.214C66.6945 304.224 44.1456 310.32 44.1456 310.32C44.1456 310.32 53.4792 330.992 73.1436 339.983Z" fill="white"/>
<path d="M75.1427 331.049C96.8231 329.142 115.8 342.353 115.8 342.353C115.8 342.353 99.6259 358.655 77.9454 360.562C56.265 362.468 37.2881 349.258 37.2881 349.258C37.2881 349.258 53.4622 332.956 75.1427 331.049Z" fill="#3F3D56"/>
<path d="M154.616 334.661C152.538 355.516 166.182 373.836 166.182 373.836C166.182 373.836 183.194 358.345 185.272 337.49C187.35 316.636 173.707 298.315 173.707 298.315C173.707 298.315 156.694 313.807 154.616 334.661Z" fill="#3F3D56"/>
<path d="M256.721 462.561C245.349 480.427 249.261 502.649 249.261 502.649C249.261 502.649 271.611 495.906 282.982 478.041C294.354 460.176 290.441 437.953 290.441 437.953C290.441 437.953 268.092 444.696 256.721 462.561Z" fill="#3F3D56"/>
<path d="M223.731 656.801C217.666 648.324 214.357 638.302 214.224 628.011C214.273 613.042 221.788 599.425 229.055 586.257C230.378 583.86 231.696 581.472 232.964 579.086C238.242 569.434 242.45 559.273 245.516 548.772C256.455 509.653 245.651 463.455 216.613 425.19C193.481 394.705 158.948 368.023 111.039 343.617L111.975 341.916C160.157 366.462 194.913 393.329 218.228 424.055C247.619 462.786 258.543 509.595 247.448 549.272C244.345 559.903 240.087 570.19 234.744 579.962C233.471 582.358 232.149 584.754 230.822 587.159C223.668 600.121 216.271 613.525 216.224 628.016C216.357 637.922 219.546 647.567 225.388 655.724L223.731 656.801Z" fill="#3F3D56"/>
<path d="M17 344.446C27.4934 344.446 36 336.26 36 326.162C36 316.064 27.4934 307.878 17 307.878C6.50659 307.878 -2 316.064 -2 326.162C-2 336.26 6.50659 344.446 17 344.446Z" fill="#3F3D56"/>
<path d="M179.428 113.165C157.662 113.615 140.348 128.793 140.348 128.793C140.348 128.793 158.323 143.243 180.089 142.794C201.855 142.345 219.169 127.166 219.169 127.166C219.169 127.166 201.194 112.716 179.428 113.165Z" fill="white"/>
<path d="M288.856 41.6678C269.191 50.6579 246.642 44.5616 246.642 44.5616C246.642 44.5616 255.976 23.8895 275.64 14.8994C295.305 5.90939 317.854 12.0056 317.854 12.0056C317.854 12.0056 308.52 32.6777 288.856 41.6678Z" fill="white"/>
<path d="M286.857 32.734C265.176 30.8273 246.199 44.038 246.199 44.038C246.199 44.038 262.373 60.34 284.054 62.2467C305.734 64.1533 324.711 50.9427 324.711 50.9427C324.711 50.9427 308.537 34.6406 286.857 32.734Z" fill="#3F3D56"/>
<path d="M207.383 36.346C209.461 57.2006 195.818 75.5209 195.818 75.5209C195.818 75.5209 178.805 60.0293 176.727 39.1748C174.649 18.3203 188.292 0 188.292 0C188.292 0 205.305 15.4915 207.383 36.346Z" fill="#3F3D56"/>
<path d="M105.279 164.246C116.65 182.111 112.738 204.334 112.738 204.334C112.738 204.334 90.3886 197.591 79.017 179.726C67.6455 161.861 71.5579 139.638 71.5579 139.638C71.5579 139.638 93.9071 146.381 105.279 164.246Z" fill="#3F3D56"/>
<path d="M138.269 358.486L136.612 357.408C142.453 349.251 145.642 339.607 145.775 329.701C145.728 315.211 138.332 301.809 131.179 288.848C129.852 286.442 128.529 284.044 127.256 281.648C121.912 271.875 117.654 261.588 114.552 250.957C103.457 211.281 114.38 164.471 143.771 125.74C167.086 95.0147 201.843 68.1472 250.025 43.6018L250.96 45.3027C203.053 69.7081 168.519 96.3909 145.386 126.875C116.349 165.14 105.544 211.339 116.483 250.457C119.55 260.958 123.757 271.119 129.036 280.772C130.305 283.159 131.623 285.548 132.946 287.945C140.213 301.113 147.727 314.729 147.775 329.696C147.643 339.987 144.334 350.009 138.269 358.486Z" fill="#3F3D56"/>
<path d="M344.999 46.1307C355.493 46.1307 363.999 37.9448 363.999 27.8469C363.999 17.749 355.493 9.56306 344.999 9.56306C334.506 9.56306 325.999 17.749 325.999 27.8469C325.999 37.9448 334.506 46.1307 344.999 46.1307Z" fill="#3F3D56"/>
</g>
</svg>
